<?xml version="1.0" encoding="UTF-8"?>
<svg id="broken-icon" viewBox="0 0 32 64">
  <path
    d="M21.662,37.164c.38.483,1.156.235,1.185-.379l.238-5.032c.014-.294-.167-.562-.445-.659l-5.772-2.003c-.626-.217-1.149.517-.739,1.038l1.953,2.482,3.582,4.553ZM20.449,50.028l6.426-9.323c.376-.546-.192-1.245-.803-.989l-3.614,1.516c-.272.114-.587.035-.773-.195l-3.73-4.608c-.279-.345-.811-.324-1.063.041l-5.189,7.529c-.669.97-1.892,1.367-3.013,1.006-3.138-1.012-6.76.421-8.188,3.808-1.024,2.429-.434,5.33,1.435,7.189,1.734,1.726,4.046,2.255,6.145,1.786.359-.08.718.167.771.531.309,2.128,1.625,4.1,3.854,5.107,2.402,1.085,5.323.605,7.229-1.216,2.658-2.539,2.708-6.435.645-9.008-.737-.919-.801-2.204-.133-3.174ZM31.634,24.125c.234.234.366.552.366.884v3.769c0,.638-.59,1.113-1.213.977l-10.555-2.308c-.248-.054-.476-.179-.655-.358l-6.558-6.558c-.841-.841-2.149-1.106-3.193-.537-2.906,1.584-6.746.836-8.769-2.246-1.481-2.256-1.392-5.253.187-7.442,1.396-1.935,3.533-2.838,5.642-2.758.368.014.676-.294.662-.662-.08-2.11.823-4.247,2.758-5.643,2.188-1.578,5.185-1.668,7.441-.187,3.081,2.024,3.83,5.864,2.246,8.77-.569,1.044-.304,2.352.537,3.193l11.104,11.105Z" />
</svg>