<?xml version="1.0" encoding="UTF-8"?>
<svg id="recover-logo" viewBox="0 0 256 64">
  <path
    d="M24.984,38.768c-.123-.216-.064-.482.131-.634.806-.629,1.539-1.372,2.2-2.231.644-.865,1.229-1.961,1.754-3.282.529-1.316.792-2.918.792-4.805,0-2.375-.423-4.478-1.27-6.305-.847-1.832-2.03-3.364-3.535-4.612-1.51-1.243-3.291-2.186-5.344-2.826-2.057-.64-4.289-.962-6.701-.962H.878c-.485,0-.878.393-.878.878v35.967c0,.485.393.878.878.878h10.294c.485,0,.878-.393.878-.878v-6.854c0-.509.671-.692.93-.254l4.467,7.555c.158.267.445.431.755.431h12.13c.673,0,1.095-.726.763-1.311l-6.111-10.754ZM16.316,30.697c-.999.644-2.214.962-3.645.962h-.621v-8.367h.621c1.431,0,2.646.318,3.645.962.999.64,1.5,1.717,1.5,3.222s-.502,2.582-1.5,3.222ZM59.837,41.816v8.14c0,.485-.393.878-.878.878h-20.866c-.485,0-.878-.393-.878-.878V13.989c0-.485.393-.878.878-.878h20.47c.485,0,.878.393.878.878v8.14c0,.485-.393.878-.878.878h-8.864c-.242,0-.439.196-.439.439v3.311c0,.242.196.439.439.439h8.694c.485,0,.878.393.878.878v7.629c0,.485-.393.878-.878.878h-8.694c-.242,0-.439.196-.439.439v3.481c0,.242.196.439.439.439h9.26c.485,0,.878.393.878.878ZM217.154,41.816v8.14c0,.485-.393.878-.878.878h-20.866c-.485,0-.878-.393-.878-.878V13.989c0-.485.393-.878.878-.878h20.47c.485,0,.878.393.878.878v8.14c0,.485-.393.878-.878.878h-8.864c-.242,0-.439.196-.439.439v3.311c0,.242.196.439.439.439h8.694c.485,0,.878.393.878.878v7.629c0,.485-.393.878-.878.878h-8.694c-.242,0-.439.196-.439.439v3.481c0,.242.196.439.439.439h9.26c.485,0,.878.393.878.878ZM255.884,49.522l-6.111-10.754c-.123-.216-.064-.482.131-.634.806-.629,1.539-1.372,2.2-2.231.64-.865,1.224-1.961,1.754-3.282.529-1.316.792-2.918.792-4.805,0-2.375-.423-4.478-1.27-6.305-.851-1.832-2.03-3.364-3.535-4.612-1.51-1.243-3.291-2.186-5.348-2.826-2.053-.64-4.289-.962-6.701-.962h-12.129c-.485,0-.878.393-.878.878v35.967c0,.485.393.878.878.878h10.289c.485,0,.878-.393.878-.878v-6.855c0-.509.671-.692.93-.255l4.471,7.556c.158.267.445.431.755.431h12.13c.673,0,1.095-.726.763-1.311ZM241.105,30.697c-.999.644-2.214.962-3.645.962h-.626v-8.367h.626c1.431,0,2.646.318,3.645.962.999.64,1.5,1.717,1.5,3.222s-.502,2.582-1.5,3.222ZM188.976,14.308l-14.021,35.967c-.131.337-.456.559-.818.559h-8.585c-.362,0-.686-.222-.818-.559l-4.375-11.222c.47-2.279.731-4.634.731-7.052,0-6.966-2.051-13.45-5.579-18.889h7.312c.362,0,.686.222.818.559l5.768,14.796c.145.372.671.373.817.001l5.819-14.799c.132-.336.456-.556.817-.556h11.295c.618,0,1.042.621.818,1.196ZM96.327,49.64s-.007.004-.011.006c-1.206.529-2.656,1.017-4.354,1.468-1.698.456-3.641.681-5.827.681-2.941,0-5.652-.483-8.142-1.441-2.49-.962-4.639-2.31-6.448-4.046-1.809-1.735-3.222-3.815-4.239-6.25-1.022-2.43-1.528-5.118-1.528-8.059,0-3.015.525-5.739,1.583-8.174,1.054-2.43,2.485-4.51,4.299-6.246,1.809-1.735,3.921-3.065,6.333-3.99,2.412-.921,4.975-1.385,7.691-1.385,2.149,0,4.064.207,5.739.621,1.68.419,3.12.888,4.326,1.418.177.076.332.159.503.238-2.008,3.432-3.448,7.234-4.182,11.286-.189-.118-.368-.24-.565-.356-.033-.02-.066-.037-.101-.053-.634-.291-1.381-.578-2.241-.851-.888-.285-1.896-.423-3.028-.423-1.169,0-2.241.207-3.222.621s-1.836.98-2.573,1.698c-.736.713-1.312,1.556-1.726,2.513-.414.962-.621,1.993-.621,3.084s.216,2.122.649,3.084c.433.962,1.026,1.8,1.781,2.518.755.713,1.643,1.279,2.66,1.694,1.017.414,2.131.621,3.337.621s2.278-.147,3.222-.451c.943-.299,1.735-.64,2.375-1.017.031-.017.056-.039.087-.057.751,4.04,2.204,7.83,4.223,11.249ZM140.386,29.042v5.916c0,.311-.252.563-.563.563h-9.719c-.156,0-.282.126-.282.282v9.719c0,.311-.252.563-.563.563h-5.916c-.311,0-.563-.252-.563-.563v-9.719c0-.156-.126-.282-.282-.282h-9.719c-.311,0-.563-.252-.563-.563v-5.916c0-.311.252-.563.563-.563h9.719c.156,0,.282-.126.282-.282v-9.719c0-.311.252-.563.563-.563h5.916c.311,0,.563.252.563.563v9.719c0,.156.126.282.282.282h9.719c.311,0,.563.252.563.563ZM157.287,32c0,6.146-1.775,12.096-5.133,17.211-.541.824-1.44,1.271-2.358,1.271-.53,0-1.067-.15-1.544-.463-1.3-.854-1.662-2.601-.808-3.901,2.754-4.192,4.209-9.074,4.209-14.117,0-14.112-11.373-25.593-25.353-25.593-2.791,0-5.521.452-8.13,1.347l1.186,2.327c.228.447-.199.947-.676.792l-7.375-2.397c-.296-.096-.458-.414-.362-.71l2.395-7.375c.155-.477.81-.529,1.038-.082l1.219,2.392c3.424-1.273,7.021-1.927,10.705-1.927,17.086,0,30.987,14.008,30.987,31.227ZM141.658,56.235l-2.395,7.375c-.155.477-.81.529-1.038.082l-1.219-2.392c-3.426,1.273-7.022,1.927-10.705,1.927-17.086,0-30.987-14.008-30.987-31.227,0-6.145,1.775-12.096,5.133-17.21.854-1.301,2.6-1.663,3.901-.809,1.301.854,1.663,2.601.809,3.901-2.753,4.193-4.208,9.075-4.208,14.118,0,14.112,11.373,25.593,25.353,25.593,2.79,0,5.519-.452,8.13-1.347l-1.186-2.327c-.228-.447.199-.947.676-.792l7.375,2.397c.296.096.458.414.362.71Z" />
</svg>