<?xml version="1.0" encoding="UTF-8"?>
<svg id="recover-logomark" viewBox="0 0 64 64">
  <path
    d="M46.085,29.042v5.916c0,.311-.252.563-.563.563h-9.719c-.156,0-.282.126-.282.282v9.719c0,.311-.252.563-.563.563h-5.916c-.311,0-.563-.252-.563-.563v-9.719c0-.156-.126-.282-.282-.282h-9.719c-.311,0-.563-.252-.563-.563v-5.916c0-.311.252-.563.563-.563h9.719c.156,0,.282-.126.282-.282v-9.719c0-.311.252-.563.563-.563h5.916c.311,0,.563.252.563.563v9.719c0,.156.126.282.282.282h9.719c.311,0,.563.252.563.563ZM62.987,32c0,6.146-1.775,12.096-5.133,17.211-.541.824-1.44,1.271-2.358,1.271-.53,0-1.067-.15-1.544-.463-1.3-.854-1.662-2.601-.808-3.901,2.754-4.192,4.209-9.074,4.209-14.117,0-14.112-11.373-25.593-25.353-25.593-2.791,0-5.521.452-8.13,1.347l1.186,2.327c.228.447-.199.947-.676.792l-7.375-2.397c-.296-.096-.458-.414-.362-.71L19.038.389c.155-.477.81-.529,1.038-.082l1.219,2.392c3.424-1.273,7.021-1.927,10.705-1.927,17.086,0,30.987,14.008,30.987,31.227ZM47.357,56.235l-2.395,7.375c-.155.477-.81.529-1.038.082l-1.219-2.392c-3.426,1.273-7.022,1.927-10.705,1.927-17.086,0-30.987-14.008-30.987-31.227,0-6.145,1.775-12.096,5.133-17.21.854-1.301,2.6-1.663,3.901-.809,1.301.854,1.663,2.601.809,3.901-2.753,4.193-4.208,9.075-4.208,14.118,0,14.112,11.373,25.593,25.353,25.593,2.79,0,5.519-.452,8.13-1.347l-1.186-2.327c-.228-.447.199-.947.676-.792l7.375,2.397c.296.096.458.414.362.71Z" />
</svg>